<svg width="20" height="20" viewBox="0 0 20 20" fill="none" xmlns="http://www.w3.org/2000/svg">
<g id="Apple Music Logomark">
<g id="Apple Music Logomark_2">
<path id="Element" fill-rule="evenodd" clip-rule="evenodd" d="M18.2872 6.86567C18.2872 6.66715 18.2872 6.46863 18.2862 6.2701C18.2853 6.10297 18.2835 5.93585 18.2789 5.76872C18.2692 5.40445 18.2475 5.03742 18.1828 4.67731C18.1173 4.31165 18.0097 3.9714 17.8407 3.63899C17.6745 3.31258 17.4575 3.01433 17.1985 2.75533C16.9395 2.49633 16.6408 2.27934 16.3144 2.11313C15.9825 1.94416 15.6422 1.83705 15.277 1.77103C14.9169 1.70639 14.5494 1.68469 14.1851 1.675C14.018 1.67038 13.8509 1.66853 13.6837 1.66761C13.4852 1.66669 13.2867 1.66669 13.0882 1.66669H6.86565C6.66713 1.66669 6.46861 1.66669 6.27008 1.66761C6.10295 1.66853 5.93583 1.67038 5.7687 1.675C5.40443 1.68515 5.03693 1.70639 4.67682 1.77149C4.31117 1.83705 3.97138 1.94462 3.63943 2.11359C3.31302 2.2798 3.01431 2.49679 2.75531 2.75579C2.49631 3.01479 2.27932 3.31304 2.11311 3.63945C1.94414 3.97186 1.83656 4.31212 1.77101 4.67777C1.70637 5.03788 1.68467 5.40538 1.67498 5.76918C1.67036 5.93631 1.66851 6.10344 1.66759 6.27057C1.66667 6.46863 1.66667 6.66715 1.66667 6.86567V13.0877C1.66667 13.2863 1.66667 13.4848 1.66759 13.6833C1.66851 13.8504 1.67036 14.0176 1.67498 14.1847C1.68467 14.549 1.70637 14.916 1.77101 15.2761C1.83656 15.6418 1.94414 15.982 2.11311 16.3144C2.27932 16.6408 2.49631 16.9391 2.75531 17.1981C3.01431 17.4571 3.31302 17.6741 3.63943 17.8403C3.97138 18.0093 4.31163 18.1164 4.67682 18.1824C5.03693 18.247 5.40443 18.2687 5.7687 18.2784C5.93583 18.283 6.10295 18.2849 6.27008 18.2858C6.46861 18.2872 6.66713 18.2867 6.86565 18.2867H13.0877C13.2862 18.2867 13.4848 18.2867 13.6833 18.2858C13.8504 18.2849 14.0175 18.283 14.1847 18.2784C14.5489 18.2687 14.9164 18.247 15.2765 18.1824C15.6422 18.1168 15.982 18.0093 16.3139 17.8403C16.6404 17.6741 16.9391 17.4571 17.1981 17.1981C17.4571 16.9391 17.6741 16.6408 17.8403 16.3144C18.0092 15.982 18.1168 15.6418 18.1824 15.2761C18.247 14.916 18.2687 14.5485 18.2784 14.1847C18.283 14.0176 18.2849 13.8504 18.2858 13.6833C18.2872 13.4848 18.2867 13.2863 18.2867 13.0877V6.86567H18.2872Z" fill="url(#paint0_linear_34_20)"/>
<path id="Element_2" fill-rule="evenodd" clip-rule="evenodd" d="M13.4155 4.20583C13.3753 4.20952 13.0185 4.27277 12.9755 4.28154L8.03555 5.27831L8.0337 5.27877C7.9049 5.30601 7.80379 5.35172 7.72576 5.41728C7.63158 5.49622 7.57941 5.60795 7.55956 5.73815C7.5554 5.76585 7.54848 5.82217 7.54848 5.90527C7.54848 5.90527 7.54848 10.9524 7.54848 12.0881C7.54848 12.2326 7.53694 12.373 7.43906 12.4925C7.34118 12.6121 7.22022 12.6481 7.07849 12.6767C6.97092 12.6984 6.86334 12.7201 6.75577 12.7418C6.34765 12.824 6.08218 12.8799 5.84165 12.9731C5.61173 13.0622 5.43952 13.1758 5.3024 13.3199C5.03047 13.6047 4.92013 13.9911 4.95799 14.3531C4.99031 14.662 5.12927 14.9574 5.36796 15.1758C5.52909 15.3236 5.73038 15.4357 5.96768 15.4833C6.21376 15.5327 6.47599 15.5156 6.85919 15.4381C7.06325 15.397 7.25439 15.3328 7.43629 15.2252C7.61635 15.119 7.77055 14.9773 7.89105 14.8046C8.01201 14.6315 8.09003 14.439 8.13297 14.2345C8.17729 14.0235 8.18791 13.8328 8.18791 13.6223V8.25984C8.18791 7.97268 8.26916 7.89696 8.50093 7.84064C8.50093 7.84064 12.6071 7.01238 12.7987 6.97499C13.066 6.92374 13.1921 6.99992 13.1921 7.28016V10.9408C13.1921 11.0858 13.1907 11.2326 13.0919 11.3526C12.994 11.4722 12.873 11.5082 12.7313 11.5369C12.6237 11.5586 12.5162 11.5803 12.4086 11.6019C12.0005 11.6841 11.735 11.74 11.4945 11.8333C11.2645 11.9224 11.0923 12.0359 10.9552 12.18C10.6833 12.4648 10.5633 12.8513 10.6011 13.2132C10.6334 13.5221 10.7821 13.8176 11.0208 14.0359C11.1819 14.1837 11.3832 14.2926 11.6205 14.3406C11.8666 14.39 12.1288 14.3725 12.512 14.2954C12.7161 14.2543 12.9072 14.1929 13.0891 14.0853C13.2692 13.9791 13.4234 13.8374 13.5439 13.6647C13.6648 13.4916 13.7428 13.2991 13.7858 13.0946C13.8301 12.8836 13.8319 12.6929 13.8319 12.4824V4.64258C13.8329 4.35818 13.6828 4.18274 13.4155 4.20583Z" fill="white"/>
</g>
</g>
<defs>
<linearGradient id="paint0_linear_34_20" x1="9.97691" y1="18.2244" x2="9.97691" y2="2.02479" gradientUnits="userSpaceOnUse">
<stop stop-color="#FA233B"/>
<stop offset="1" stop-color="#FB5C74"/>
</linearGradient>
</defs>
</svg>
