<svg width="30" height="30" viewBox="0 0 30 30" fill="none" xmlns="http://www.w3.org/2000/svg">
<g id="Group 3">
<rect id="BG1" width="30" height="30" rx="15" fill="white" fill-opacity="0.5"/>
<g id="Element">
<path d="M18.2678 13.9607C18.2678 14.1259 18.1917 14.2911 18.0505 14.3902C17.718 14.6009 17.284 14.5267 16.8953 14.4642C16.7247 14.4368 16.5554 14.3975 16.3884 14.3462C16.3312 14.3269 16.2657 14.316 16.2065 14.3062C16.1902 14.3035 16.1733 14.301 16.1573 14.3051C16.1086 14.3176 16.0842 14.3691 16.0842 14.4453V14.5819C16.0842 14.6375 16.0745 14.6965 16.0892 14.7502C16.1027 14.7995 16.1299 14.844 16.1729 14.8715C16.1949 14.8856 16.2196 14.8967 16.2471 14.9079C16.6382 15.0621 17.051 15.1392 17.4639 15.1282C17.8767 15.1502 18.2786 15.029 18.6045 14.7977C18.887 14.5885 19.0391 14.2581 19.0282 13.9166C19.0282 13.6853 18.9522 13.454 18.8109 13.2778C18.6263 13.0906 18.3873 12.9364 18.1374 12.8482L17.4964 12.617C17.3118 12.5619 17.138 12.4738 16.9859 12.3636C16.899 12.2865 16.8446 12.1654 16.8555 12.0442C16.8555 11.7028 17.1162 11.5376 17.6268 11.5376C17.9201 11.5376 18.2134 11.5816 18.4959 11.6587C18.5502 11.6808 18.6154 11.7028 18.6806 11.7028C18.7566 11.7028 18.7892 11.6477 18.7892 11.5596V11.3503C18.7892 11.2426 18.7101 11.1404 18.6045 11.119C18.2786 11.0089 17.931 10.9428 17.5834 10.9428C17.2031 10.9208 16.8229 11.0309 16.5187 11.2512C16.258 11.4495 16.1059 11.7579 16.1168 12.0773C16.1168 12.5839 16.4101 12.9584 17.0076 13.1677L17.692 13.421C17.8549 13.465 18.0179 13.5421 18.1483 13.6523C18.2243 13.7294 18.2678 13.8505 18.2678 13.9607Z" fill="#000008"/>
<path d="M14.8586 10.9318C14.7853 10.9318 14.7015 10.9287 14.6577 10.9875C14.6119 11.0492 14.6286 11.1356 14.6278 11.2124L14.6095 12.9026C14.6013 13.6665 14.2302 14.4795 13.4666 14.5004C13.2711 14.5224 13.0755 14.4453 12.9452 14.2911C12.8257 14.1039 12.7605 13.8836 12.7822 13.6523V11.053C12.7621 10.9101 12.5577 10.9318 12.4134 10.9318H12.3667C12.2166 10.9318 12.0008 10.9484 12.0218 11.0971V13.9056C12 14.2361 12.1087 14.5665 12.3151 14.8198C12.5432 15.0401 12.8583 15.1613 13.1733 15.1392C13.6288 15.1211 14.0623 14.9913 14.4376 14.7498C14.5476 14.679 14.7024 14.7353 14.7268 14.8639C14.7279 14.8682 14.729 14.8725 14.7303 14.8768C14.754 14.957 14.8278 15.0181 14.9115 15.0181H15.0446C15.1946 15.0181 15.4104 15.0015 15.3895 14.8529V11.053C15.3693 10.9101 15.165 10.9318 15.0207 10.9318H14.8586Z" fill="#000008"/>
<path d="M10.2619 14.9079C10.2828 15.0561 10.5 15.0291 10.6496 15.0291H10.6774C10.8275 15.0291 11.0433 15.0125 11.0223 14.8639V12.0333C11.0233 12.0182 11.0241 12.0032 11.0245 11.9881C11.0427 11.3783 10.501 10.7886 9.89252 10.8327C9.7345 10.8388 9.57893 10.8581 9.42717 10.8902C8.81329 11.0202 7.95622 10.8327 7.32873 10.8327C6.88168 10.8512 6.44229 10.9785 6.06205 11.2145C5.96327 11.2758 5.82749 11.2227 5.80784 11.1081C5.80677 11.1037 5.8056 11.0994 5.80432 11.0951C5.7806 11.0149 5.70679 10.9539 5.62315 10.9539H5.4548C5.30705 10.9539 5.09195 10.9728 5.11257 11.1191V14.9189C5.11257 15.0653 5.33812 15.0401 5.48448 15.0401H5.54983C5.69991 15.0401 5.91568 15.0235 5.89474 14.8749V13.0576C5.89474 12.2923 6.28096 11.4825 7.04628 11.4825C7.23096 11.4605 7.40477 11.5376 7.52427 11.6698C7.64377 11.846 7.68722 12.0553 7.67636 12.2645V14.9189C7.69724 15.0672 7.91444 15.0401 8.06411 15.0401H8.12449C8.27457 15.0401 8.49034 15.0235 8.4694 14.8749V13.069C8.4694 12.2982 8.8612 11.4921 9.63179 11.4715C9.81647 11.4495 9.99029 11.5266 10.1098 11.6588C10.2293 11.835 10.2727 12.0443 10.2619 12.2535V14.9079Z" fill="#000008"/>
<path d="M21.8502 13.0135C21.8502 12.5179 21.948 12.1544 22.1436 11.9341C22.3391 11.7138 22.6541 11.5927 23.0561 11.5817C23.2734 11.5817 23.5015 11.6147 23.7079 11.6808C23.7514 11.6918 23.7948 11.7028 23.8383 11.7028C23.9035 11.7028 23.936 11.6588 23.936 11.5486V11.3969C23.936 11.3586 23.942 11.3145 23.9372 11.2765C23.9278 11.2017 23.8808 11.1384 23.8122 11.1071C23.8028 11.1029 23.7934 11.0994 23.784 11.097C23.5232 10.9979 23.2408 10.9428 22.9583 10.9428C22.426 10.9098 21.9154 11.1081 21.5352 11.4936C21.1984 11.868 21.0355 12.3747 21.0355 13.0576C21.0355 13.7404 21.1984 14.2581 21.5243 14.6105C21.8503 14.974 22.3174 15.1502 22.9366 15.1502C23.2408 15.1612 23.545 15.1062 23.8274 14.985C23.9254 14.9453 23.9904 14.8485 23.9904 14.7427V14.5334C23.9904 14.4343 23.9578 14.3792 23.8926 14.3792C23.8566 14.3792 23.828 14.3868 23.7946 14.3957C23.7877 14.3975 23.7805 14.3994 23.7731 14.4013C23.545 14.4674 23.306 14.5114 23.067 14.5114C22.7302 14.5445 22.3934 14.4123 22.1436 14.17C21.948 13.9497 21.8502 13.5972 21.8502 13.1126V13.0135Z" fill="#000008"/>
<path d="M20.2859 11.2843C20.2658 11.1414 20.0614 11.1631 19.9171 11.1631H19.8314C19.6929 11.1631 19.4953 11.1801 19.5146 11.3173V15.0181C19.5347 15.1609 19.7391 15.1392 19.8834 15.1392H19.9493C20.0938 15.1392 20.3061 15.1282 20.2859 14.985V11.2843Z" fill="#000008"/>
<path d="M19.9057 10.4913C20.1653 10.4913 20.3945 10.2553 20.3945 9.99563C20.3945 9.73601 20.1653 9.5 19.9057 9.5C19.6461 9.5 19.4168 9.73601 19.4168 9.99563C19.4168 10.2553 19.6461 10.4913 19.9057 10.4913Z" fill="#000008"/>
<path d="M5.08657 17.0476C7.73598 19.614 11.1785 21.017 14.7392 20.9998C17.4055 20.9998 20.5105 20.0931 22.6705 18.3993C23.0249 18.1255 22.7211 17.6978 22.3668 17.8689C20.0211 18.9125 17.5236 19.46 14.9923 19.4771C11.5835 19.4942 8.25911 18.5361 5.30595 16.7397C5.0697 16.5857 4.88407 16.8594 5.08657 17.0476Z" fill="#000008"/>
<path d="M20.9493 17.2872C21.658 17.2016 23.2274 17.0134 23.4974 17.3727C23.7596 17.7216 23.2104 19.1673 22.9465 19.8617C22.9386 19.8825 22.931 19.9026 22.9237 19.922C22.8393 20.1273 23.008 20.2128 23.1937 20.0588C24.358 19.0494 24.6618 16.945 24.4255 16.637C24.1893 16.3291 22.1474 16.0724 20.8986 16.9792C20.6961 17.1161 20.7299 17.3043 20.9493 17.2872Z" fill="#000008"/>
</g>
</g>
</svg>
