<svg width="20" height="20" viewBox="0 0 20 20" fill="none" xmlns="http://www.w3.org/2000/svg">
<g id="SoundCloud Logomark">
<path id="SoundCloud Logomark_2" fill-rule="evenodd" clip-rule="evenodd" d="M18.0464 11.4054C18.0134 11.9961 17.7533 12.5511 17.3206 12.9546C16.8879 13.3581 16.316 13.5787 15.7244 13.5704H10.1431C10.0202 13.5691 9.9028 13.5197 9.81611 13.4326C9.72942 13.3455 9.68045 13.2279 9.67976 13.105V7.09534C9.67584 6.9922 9.70319 6.89029 9.75821 6.80296C9.81323 6.71564 9.89336 6.64699 9.98809 6.606C9.98809 6.606 10.5014 6.25 11.5828 6.25C12.2434 6.24926 12.8919 6.42745 13.4594 6.76567C13.9022 7.02622 14.2862 7.37582 14.587 7.79238C14.8877 8.20893 15.0988 8.68337 15.2068 9.18568C15.3994 9.13143 15.5986 9.10428 15.7988 9.10501C16.099 9.10304 16.3965 9.1616 16.6735 9.27717C16.9506 9.39274 17.2016 9.56296 17.4114 9.77767C17.6212 9.99238 17.7856 10.2472 17.8948 10.5268C18.0039 10.8065 18.0553 11.1053 18.0464 11.4054ZM8.98309 7.47534C9.15142 9.51368 9.27376 11.3727 8.98309 13.4044C8.97804 13.4486 8.95689 13.4895 8.92367 13.5191C8.89044 13.5488 8.84746 13.5652 8.80292 13.5652C8.75839 13.5652 8.71541 13.5488 8.68218 13.5191C8.64895 13.4895 8.6278 13.4486 8.62276 13.4044C8.35176 11.39 8.46942 9.49601 8.62276 7.47534C8.61877 7.44138 8.6245 7.40699 8.63928 7.37616C8.65407 7.34533 8.6773 7.31933 8.70627 7.30118C8.73525 7.28302 8.76878 7.27346 8.80297 7.27361C8.83716 7.27376 8.8706 7.2836 8.89942 7.30201C8.95809 7.33867 8.99109 7.40634 8.98309 7.47534ZM7.85342 13.4064C7.84708 13.4517 7.82457 13.4931 7.79006 13.5232C7.75554 13.5532 7.71133 13.5697 7.66559 13.5697C7.61984 13.5697 7.57564 13.5532 7.54112 13.5232C7.5066 13.4931 7.4841 13.4517 7.47776 13.4064C7.27576 11.6683 7.27576 9.91272 7.47776 8.17468C7.48257 8.1279 7.50456 8.08458 7.53947 8.05308C7.57438 8.02158 7.61973 8.00414 7.66676 8.00414C7.71378 8.00414 7.75913 8.02158 7.79404 8.05308C7.82895 8.08458 7.85094 8.1279 7.85576 8.17468C8.08009 9.91135 8.07909 11.6697 7.85342 13.4064ZM6.72209 7.99768C6.90542 9.86535 6.98876 11.5387 6.72009 13.402C6.71729 13.4482 6.69696 13.4916 6.66326 13.5233C6.62956 13.555 6.58503 13.5727 6.53876 13.5727C6.49248 13.5727 6.44795 13.555 6.41425 13.5233C6.38055 13.4916 6.36022 13.4482 6.35742 13.402C6.09742 11.5627 6.18476 9.84135 6.35742 7.99768C6.36742 7.90434 6.44609 7.83434 6.53976 7.83434C6.63309 7.83434 6.71209 7.90434 6.72209 7.99768ZM5.58876 13.4087C5.58274 13.4534 5.5607 13.4944 5.52674 13.5241C5.49278 13.5538 5.4492 13.5702 5.40409 13.5702C5.35898 13.5702 5.3154 13.5538 5.28144 13.5241C5.24748 13.4944 5.22544 13.4534 5.21942 13.4087C5.01075 11.7872 5.01075 10.1456 5.21942 8.52401C5.21942 8.47419 5.23921 8.42642 5.27444 8.39119C5.30966 8.35597 5.35744 8.33618 5.40726 8.33618C5.45707 8.33618 5.50485 8.35597 5.54007 8.39119C5.5753 8.42642 5.59509 8.47419 5.59509 8.52401C5.81671 10.1449 5.8148 11.7885 5.58876 13.4087ZM4.45676 9.74535C4.74309 11.012 4.61409 12.1307 4.44609 13.4217C4.43929 13.4632 4.41795 13.5009 4.3859 13.5282C4.35384 13.5554 4.31315 13.5704 4.27109 13.5704C4.22903 13.5704 4.18834 13.5554 4.15628 13.5282C4.12422 13.5009 4.10289 13.4632 4.09609 13.4217C3.94342 12.1484 3.81676 11.0034 4.08542 9.74501C4.0883 9.6977 4.10914 9.65327 4.14367 9.6208C4.17821 9.58833 4.22384 9.57027 4.27125 9.57031C4.31865 9.57035 4.36425 9.58849 4.39873 9.62103C4.43321 9.65356 4.45396 9.69803 4.45676 9.74535ZM3.32742 9.55301C3.58976 10.8507 3.50409 11.9494 3.32076 13.2514C3.29909 13.4437 2.96942 13.4457 2.95176 13.2514C2.78576 11.969 2.70709 10.8374 2.94509 9.55301C2.95094 9.50644 2.97359 9.4636 3.00879 9.43254C3.04399 9.40148 3.08931 9.38434 3.13626 9.38434C3.1832 9.38434 3.22853 9.40148 3.26373 9.43254C3.29893 9.4636 3.32158 9.50644 3.32742 9.55301ZM2.18742 10.182C2.46242 11.0427 2.36842 11.742 2.17642 12.6244C2.17256 12.669 2.1521 12.7106 2.11908 12.7408C2.08606 12.7711 2.04289 12.7879 1.99809 12.7879C1.95329 12.7879 1.91011 12.7711 1.8771 12.7408C1.84408 12.7106 1.82362 12.669 1.81976 12.6244C1.65409 11.7594 1.58642 11.045 1.80509 10.182C1.80909 10.1341 1.83095 10.0895 1.86633 10.0569C1.90171 10.0244 1.94802 10.0063 1.99609 10.0063C2.04416 10.0063 2.09047 10.0244 2.12585 10.0569C2.16123 10.0895 2.18308 10.1341 2.18709 10.182H2.18742Z" fill="#FF5500"/>
</g>
</svg>
