<svg width="20" height="20" viewBox="0 0 20 20" fill="none" xmlns="http://www.w3.org/2000/svg">
<path d="M14.9298 9.05437C12.2435 7.45911 7.81259 7.31243 5.24828 8.09081C4.8365 8.21569 4.40104 7.98323 4.27625 7.57146C4.15146 7.15948 4.38372 6.72432 4.7958 6.59914C7.73945 5.70553 12.6329 5.87818 15.7254 7.71386C16.0957 7.93368 16.2172 8.41203 15.9977 8.78181C15.778 9.15219 15.2992 9.27429 14.9298 9.05437ZM14.8418 11.4172C14.6533 11.7229 14.2535 11.8189 13.9481 11.6311C11.7086 10.2546 8.29363 9.85583 5.64413 10.66C5.30052 10.7639 4.9376 10.5701 4.83331 10.2272C4.72972 9.88359 4.92357 9.52137 5.26649 9.41689C8.29323 8.4985 12.0559 8.94331 14.628 10.5239C14.9334 10.712 15.0296 11.1122 14.8418 11.4172ZM13.8221 13.6863C13.6723 13.9319 13.3526 14.0088 13.1079 13.8591C11.1509 12.6631 8.6878 12.3931 5.78703 13.0556C5.50751 13.1197 5.22897 12.9445 5.16519 12.665C5.1012 12.3856 5.27564 12.107 5.55587 12.0432C8.73019 11.3175 11.4532 11.6298 13.6497 12.972C13.8946 13.1216 13.9718 13.4415 13.8221 13.6863ZM10.0003 1.66669C5.39784 1.66669 1.66676 5.39764 1.66676 9.99992C1.66676 14.6027 5.39784 18.3334 10.0003 18.3334C14.6028 18.3334 18.3337 14.6027 18.3337 9.99992C18.3337 5.39764 14.6028 1.66669 10.0003 1.66669Z" fill="#1ED760"/>
</svg>
