<svg width="20" height="20" viewBox="0 0 20 20" fill="none" xmlns="http://www.w3.org/2000/svg">
<g id="YouTube Music Logomark">
<g id="YouTube Music Logotype">
<path d="M10 18.3333C14.6025 18.3333 18.3335 14.6024 18.3335 9.99996C18.3335 5.39748 14.6025 1.66663 10 1.66663C5.39753 1.66663 1.66667 5.39748 1.66667 9.99996C1.66667 14.6024 5.39753 18.3333 10 18.3333Z" fill="#F62B1E"/>
<path d="M10 4.93902C7.2052 4.93902 4.93908 7.20513 4.93908 9.99996C4.93908 12.7948 7.2052 15.0609 10 15.0609C12.7949 15.0609 15.061 12.7948 15.061 9.99996C15.061 7.20513 12.7949 4.93902 10 4.93902ZM10 5.61156C12.4199 5.61156 14.3884 7.58008 14.3884 9.99996C14.3884 12.4198 12.4199 14.3884 10 14.3884C7.58014 14.3884 5.61162 12.4198 5.61162 9.99996C5.61162 7.58008 7.58014 5.61156 10 5.61156Z" fill="white"/>
<path d="M8.39002 12.4622L12.6513 9.99998L8.39002 7.53779V12.4622Z" fill="white"/>
</g>
</g>
</svg>
